<?xml version="1.0" encoding="UTF-8"?>
<svg xmlns="http://www.w3.org/2000/svg" xmlns:xlink="http://www.w3.org/1999/xlink" width="49px" height="10px" viewBox="0 0 48 10" version="1.1">
<g id="surface1">
<path style=" stroke:none;fill-rule:nonzero;fill:rgb(0%,44.705882%,80.784314%);fill-opacity:1;" d="M 8.210938 5.054688 C 6.46875 2.679688 3.277344 0.00390625 3.277344 0.00390625 C 7.476562 1.167969 9.679688 3.277344 9.679688 3.277344 C 9.136719 3.960938 8.234375 5.074219 8.210938 5.054688 Z M 3.148438 0.0898438 C 3.148438 0.0898438 0.734375 3.472656 0 6.679688 C 0 6.722656 1.292969 4.722656 4.851562 1.648438 C 4.871094 1.648438 4.179688 0.945312 3.148438 0.0898438 Z M 0.0625 6.832031 C 0.0625 6.832031 2.824219 9.046875 6.550781 9.992188 C 6.550781 9.96875 3.359375 7.507812 1.53125 5.070312 C 1.53125 5.097656 0.0625 6.832031 0.0625 6.832031 Z M 5.042969 8.5 L 6.742188 9.996094 C 6.742188 9.996094 9.074219 6.746094 9.738281 3.40625 C 9.742188 3.425781 7.046875 7.03125 5.042969 8.5 Z M 11.796875 0.6875 L 15.144531 0.6875 C 17.84375 0.6875 19.707031 2.570312 19.707031 5.03125 L 19.707031 5.054688 C 19.707031 7.515625 17.84375 9.429688 15.144531 9.429688 L 11.796875 9.429688 Z M 13.683594 2.421875 L 13.683594 7.695312 L 15.144531 7.695312 C 16.691406 7.695312 17.730469 6.628906 17.730469 5.082031 L 17.730469 5.0625 C 17.730469 3.515625 16.683594 2.425781 15.144531 2.425781 Z M 21.378906 0.6875 L 27.855469 0.6875 L 27.855469 2.398438 L 23.257812 2.398438 L 23.257812 4.167969 L 27.304688 4.167969 L 27.304688 5.882812 L 23.257812 5.882812 L 23.257812 7.714844 L 27.917969 7.714844 L 27.917969 9.429688 L 21.378906 9.429688 Z M 29.21875 5.082031 L 29.21875 5.0625 C 29.21875 2.578125 31.054688 0.542969 33.695312 0.542969 C 35.3125 0.542969 36.277344 1.089844 37.078125 1.894531 L 35.875 3.304688 C 35.210938 2.695312 34.542969 2.320312 33.679688 2.320312 C 32.234375 2.320312 31.195312 3.542969 31.195312 5.039062 L 31.195312 5.0625 C 31.195312 6.558594 32.210938 7.808594 33.679688 7.808594 C 34.660156 7.808594 35.261719 7.40625 35.941406 6.789062 L 37.140625 8.027344 C 36.257812 8.992188 35.277344 9.585938 33.625 9.585938 C 31.097656 9.582031 29.21875 7.59375 29.21875 5.082031 Z M 41.589844 0.621094 L 43.332031 0.621094 L 47.003906 9.429688 L 45.027344 9.429688 L 44.242188 7.472656 L 40.621094 7.472656 L 39.835938 9.429688 L 37.910156 9.429688 Z M 43.574219 5.773438 L 42.4375 2.9375 L 41.292969 5.773438 Z M 47.492188 9.15625 C 47.492188 9.011719 47.605469 8.898438 47.746094 8.898438 C 47.886719 8.898438 48 9.011719 48 9.15625 C 48.007812 9.300781 47.902344 9.421875 47.761719 9.429688 C 47.617188 9.4375 47.5 9.328125 47.492188 9.183594 C 47.492188 9.175781 47.492188 9.171875 47.492188 9.15625 Z M 47.972656 9.15625 C 47.980469 9.027344 47.878906 8.917969 47.761719 8.910156 C 47.632812 8.902344 47.527344 9.003906 47.519531 9.128906 C 47.519531 9.132812 47.519531 9.140625 47.519531 9.15625 C 47.511719 9.285156 47.613281 9.394531 47.730469 9.402344 C 47.859375 9.40625 47.964844 9.308594 47.972656 9.183594 C 47.972656 9.175781 47.972656 9.171875 47.972656 9.15625 Z M 47.648438 9.019531 L 47.765625 9.019531 C 47.824219 9.019531 47.867188 9.046875 47.867188 9.105469 C 47.867188 9.140625 47.84375 9.175781 47.808594 9.183594 L 47.878906 9.285156 L 47.816406 9.285156 L 47.753906 9.191406 L 47.695312 9.191406 L 47.695312 9.277344 L 47.648438 9.277344 Z M 47.761719 9.15625 C 47.796875 9.15625 47.816406 9.140625 47.816406 9.113281 C 47.816406 9.082031 47.796875 9.070312 47.761719 9.070312 L 47.695312 9.070312 L 47.695312 9.15625 Z M 47.761719 9.15625 "/>
</g>
</svg>
