<svg xmlns="http://www.w3.org/2000/svg" xmlns:xlink="http://www.w3.org/1999/xlink" version="1.1" id="Layer_1" x="0px" y="0px" style="enable-background:new 0 0 679.8 138.9;" xml:space="preserve" viewBox="0 0 679.8 138.9">
<style type="text/css">
	.st0{fill:#0072CE;}
</style>
<g id="Layer_2_00000014624804936496005350000007614737037660246190_">
	<g id="Layer_1-2">
		<path class="st0" d="M116.3,70.2C91.6,37.2,46.4,0,46.4,0c59.5,16.2,90.7,45.5,90.7,45.5C129.4,55,116.6,70.5,116.3,70.2z     M44.6,1.2c0,0-34.2,47-44.6,91.6c0,0.6,18.3-27.2,68.7-69.9C69,22.9,59.2,13.1,44.6,1.2L44.6,1.2z M0.9,94.9    c0,0,39.1,30.8,91.9,43.9c0-0.3-45.2-34.5-71.1-68.4C21.7,70.8,0.9,94.9,0.9,94.9z M71.4,118.1l24.1,20.8c0,0,33-45.2,42.4-91.6    C138,47.6,99.8,97.7,71.4,118.1z M167.1,9.5h47.4c38.2,0,64.6,26.2,64.6,60.4v0.3c0,34.2-26.4,60.8-64.6,60.8h-47.4V9.5z     M193.8,33.6v73.3h20.7c21.9,0,36.6-14.8,36.6-36.3v-0.3c0-21.5-14.8-36.6-36.6-36.6L193.8,33.6z M302.8,9.5h91.7v23.8h-65.1v24.6    h57.3v23.8h-57.3v25.5h66V131h-92.6L302.8,9.5z M413.8,70.6v-0.3c0-34.5,26-62.8,63.4-62.8c22.9,0,36.6,7.6,47.9,18.8l-17,19.6    c-9.4-8.5-18.9-13.7-31.1-13.7c-20.5,0-35.2,17-35.2,37.8v0.3c0,20.8,14.4,38.2,35.2,38.2c13.9,0,22.4-5.6,32-14.2l17,17.2    c-12.5,13.4-26.4,21.7-49.8,21.7C440.4,133.1,413.8,105.5,413.8,70.6z M589,8.6h24.7L665.7,131h-28l-11.1-27.2h-51.3L564.2,131    h-27.3L589,8.6z M617.1,80.2L601,40.8l-16.2,39.4H617.1z M672.6,127.2L672.6,127.2c0-2,1.6-3.6,3.6-3.6c2,0,3.6,1.6,3.6,3.6    c0,0,0,0,0,0l0,0c0.1,2-1.4,3.7-3.4,3.8c-2,0.1-3.7-1.4-3.8-3.4C672.6,127.5,672.6,127.4,672.6,127.2L672.6,127.2z M679.4,127.2    L679.4,127.2c0.1-1.8-1.3-3.3-3-3.4c-1.8-0.1-3.3,1.3-3.4,3c0,0.1,0,0.2,0,0.4l0,0c-0.1,1.8,1.3,3.3,3,3.4c1.8,0.1,3.3-1.3,3.4-3    C679.4,127.5,679.4,127.4,679.4,127.2z M674.8,125.3h1.7c0.8,0,1.4,0.4,1.4,1.2c0,0.5-0.3,1-0.8,1.1l1,1.4h-0.9l-0.9-1.3h-0.8v1.2    h-0.7L674.8,125.3z M676.4,127.2c0.5,0,0.8-0.2,0.8-0.6s-0.3-0.6-0.8-0.6h-0.9v1.2H676.4z"/>
	</g>
</g>
</svg>